/* XPM */
static char *product_logo_32[] = {
/* columns rows colors chars-per-pixel */
"32 32 50 1 ",
"  c None",
". c #000704",
"X c #000A06",
"o c #000C07",
"O c #000D07",
"+ c #002C19",
"@ c #002E1A",
"# c #00311C",
"$ c #004225",
"% c #004326",
"& c #004728",
"* c #005430",
"= c #005531",
"- c #006E3F",
"; c #007542",
": c #007D47",
"> c #007E48",
", c #007F48",
"< c #008049",
"1 c #00884E",
"2 c #00894E",
"3 c #008A4E",
"4 c #008A4F",
"5 c #008D50",
"6 c #009857",
"7 c #009E5A",
"8 c #009F5A",
"9 c #00A15C",
"0 c #00A45D",
"q c #00A860",
"w c #00A960",
"e c #00AB61",
"r c #00B165",
"t c #00B768",
"y c #00BD6C",
"u c #00C36F",
"i c #00C470",
"p c #00C972",
"a c #00CA73",
"s c #00CE76",
"d c #00CF76",
"f c #00D076",
"g c #00D077",
"h c #00D177",
"j c #00D277",
"k c #00D278",
"l c #00D378",
"z c #00D478",
"x c #00D479",
"c c #00D579",
/* pixels */
"                                ",
"                                ",
"                                ",
"  hhhhhhhhhhhhhhhhhhhh          ",
"  hhhhhhhhhhhhhhhhhhhhhh        ",
" hhhhhhhhhhhhhhhhhhhhhhhhh      ",
" hhhhhhhhhhhhhhhhhhhhhhhhhh     ",
" hhhhhhhhhhhhhhhhhhhhhhhhhhh    ",
" hhhhhhhhhhhhhhhhhhhhhhhhhhhh   ",
" hhhhhhhkxxxxxxxxxxxxjhhhhhhh   ",
" hhhhhhht788888888889ijhhhhhhh  ",
" hhhhhhd*.XXXXXXXXXXO1xhhhhhhh  ",
" hhhhhhhe244444444435ykhhhhhhh  ",
" hhhhhhhlcccccccccccckhhhhhhhh  ",
" hhhhhhhspppppppppppaghhhhhhhh  ",
" hhhhhhg-+@@@@@@@@@@#6zhhhhhhhh ",
" hhhhhhg:$%%%%%%%%%%&9lhhhhhhhh ",
" hhhhhhhjdddddddddddfjhhhhhhhh  ",
" hhhhhhhlcccccccclhhhhhhhhhhhh  ",
" hhhhhhh0>,,,,,,<rkhhhhhhhhhhh  ",
" hhhhhhf=XOOOOOOo;lhhhhhhhhhhh  ",
" hhhhhhhyqqqqqqqwujhhhhhhhhhh   ",
" hhhhhhhkzzzzzzzzjhhhhhhhhhhh   ",
" hhhhhhhhhhhhhhhhhhhhhhhhhhh    ",
" hhhhhhhhhhhhhhhhhhhhhhhhhhh    ",
" hhhhhhhhhhhhhhhhhhhhhhhhhh     ",
" hhhhhhhhhhhhhhhhhhhhhhhhh      ",
"  hhhhhhhhhhhhhhhhhhhhhh        ",
"  hhhhhhhhhhhhhhhhhhhh          ",
"                                ",
"                                ",
"                                "
};
