/* XPM */
static char *_d00aa8153d94591b416b6ff6ec02c6d[] = {
/* columns rows colors chars-per-pixel */
"32 32 64 1 ",
"  c black",
". c #00170D",
"X c #003E23",
"o c #005E35",
"O c #006238",
"+ c #00693C",
"@ c #006A3C",
"# c #006D3E",
"$ c #007140",
"% c #007342",
"& c #007945",
"* c #007A45",
"= c #00824A",
"- c #008A4E",
"; c #00A35D",
": c #00A960",
"> c #00AB62",
", c #00B165",
"< c #00B567",
"1 c #00BF6C",
"2 c #00BF6D",
"3 c #00CB73",
"4 c #00CC74",
"5 c #00CE75",
"6 c #00CF76",
"7 c #00D076",
"8 c #00D176",
"9 c #00D077",
"0 c #00D177",
"q c #00D277",
"w c #00D377",
"e c #00D278",
"r c #00D378",
"t c #00D478",
"y c #00D479",
"u c #00D579",
"i c #00D57A",
"p c #00D67A",
"a c #00D77A",
"s c #00D77B",
"d c #00D87A",
"f c #00D87B",
"g c #00D97B",
"h c #00DA7B",
"j c #00D97C",
"k c #00DA7C",
"l c #00DB7D",
"z c #00DC7D",
"x c #00DE7E",
"c c #00DE7F",
"v c #00DF7F",
"b c #00E07F",
"n c #00E080",
"m c #00E180",
"M c #00E280",
"N c #00E281",
"B c #00E381",
"V c #00E482",
"C c #00E582",
"Z c #00E583",
"A c #00E783",
"S c #00E784",
"D c #00E985",
"F c None",
/* pixels */
"FFFFFFFFFFFFFFFFFFFFFFFFFFFFFFFF",
"FFFFFFFFFFFFFFFFFFFFFFFFFFFFFFFF",
"FFFja000000000000arFFFFFFFFFFFFF",
"FF0DnnnnnnnnnnnnbnnnvrgFFFFFFFFF",
"FFA000000000000000000avngFFFFFFF",
"Frnr00000000000000000060bgFFFFFF",
"F6nr000000000000000000000avFFFFF",
"F6n000000000000r0000000000agFFFF",
"F6nr00000r00rr0rrrrr0000006b6FFF",
"F6n00000gnnnnnnnnnnnna600000nFFF",
"F6nr000g;@@@@@@@@@@@@:g00000v6FF",
"F0nr000bO            $b00000raFF",
"F6nrr000022222222222260000000nFF",
"F6n00000avvvvvvvvvvvva6000000n0F",
"F6nr000r3<<<<<<<<<<<<6r000000n0F",
"F6nr000no            #n000000b0F",
"F6n0000a>&&&&&&&&&&&&,a000000n0F",
"F0nr0006gnnnAnnnnnnnba0000000n0F",
"F6nr0006vvvvvvvvbj0000000000rnFF",
"F6n0006v-XXXXXXXX=v000000000raFF",
"F6nr000v$........@v000000000j6FF",
"F6nr0006garrrrarag0000000000AFFF",
"F6nr00000rrrrrrr00000000000j0FFF",
"F6nr0000000099r90000000000anFFFF",
"F6nrr00099r6r6r9000000006rA6FFFF",
"F0n00000r96r6r9900000000jn0FFFFF",
"FFA69900r99rr99r000000angFFFFFFF",
"FFgvaarairarraaraaavnnaaFFFFFFFF",
"FFFjrr69r69r6r606r0rgFFFFFFFFFFF",
"FFFFFFFFFFFFFFFFFFFFFFFFFFFFFFFF",
"FFFFFFFFFFFFFFFFFFFFFFFFFFFFFFFF",
"FFFFFFFFFFFFFFFFFFFFFFFFFFFFFFFF"
};
